<?xml version="1.0" encoding="UTF-8"?>
<!DOCTYPE svg PUBLIC "-//W3C//DTD SVG 1.1//EN" "http://www.w3.org/Graphics/SVG/1.1/DTD/svg11.dtd">
<!-- Creator: CorelDRAW -->
<svg xmlns="http://www.w3.org/2000/svg" xml:space="preserve" width="459.516mm" height="67.0162mm" version="1.1" style="shape-rendering:geometricPrecision; text-rendering:geometricPrecision; image-rendering:optimizeQuality; fill-rule:evenodd; clip-rule:evenodd"
viewBox="0 0 75874.28 11065.56"
 xmlns:xlink="http://www.w3.org/1999/xlink"
 xmlns:xodm="http://www.corel.com/coreldraw/odm/2003">
 <defs>
  <style type="text/css">
   <![CDATA[
    .fil0 {fill:#003299}
    .fil2 {fill:#191919}
    .fil1 {fill:#FE0000}
   ]]>
  </style>
 </defs>
 <g id="Слой_x0020_1">
  <metadata id="CorelCorpID_0Corel-Layer"/>
  <g id="_105553653825568">
   <path class="fil0" d="M5081.35 3076.79c-22.18,-29.97 -204.68,-579.08 -212.01,-641.1l-752.52 -2279.55c-16,-48 -34.16,-115.14 -53.83,-156.14l-461.95 0 -334.61 1030.22c-269.59,806.2 -522.99,1621.01 -790.09,2422.49 -610.44,1831.87 -1191.95,3694.29 -1803.09,5524.95l-451.45 1385.82c-22.18,66.59 -216.98,644.21 -221.8,702.08l409.44 0 3316.24 -10090.52c19.34,-58.02 102.77,-291.86 106.32,-334.61 29.31,21.47 43.92,95.06 61.65,148.31l690.29 2112.85c38.57,115.71 72.73,219.39 107.61,333.32l1173.23 3582.67c450.67,1351.59 885.03,2728.12 1335.95,4081.35 18.15,54.51 41.08,111.93 53.83,166.64l440.95 0c-1.45,-65.17 -632.25,-1944.06 -649.59,-1996.07 -578.87,-1737.17 -1139.63,-3492.97 -1719.14,-5230.95l-165.4 -506.52c-20.18,-60.47 -75.43,-201.38 -80.03,-255.24z"/>
   <path class="fil1" d="M4869.34 2435.68c7.33,62.02 189.84,611.13 212.01,641.1 18.71,-40.47 36.82,-106.04 51.07,-149.07l157.67 -451.27c34.69,-103.79 68.38,-207.85 104.7,-304.76l204.81 -603.57c23.51,-69.05 289.65,-869.91 321.63,-906.71l421.23 1300.53c144.13,428.4 280.06,861.3 425.19,1296.6 145.17,435.37 280.91,863.38 425.24,1296.52l532.75 1629.96c18.01,54.06 35.57,106.75 52.51,157.47l1118.14 3417.28c37.53,112.49 67.73,213.73 104.98,325.46 36.74,110.17 75.51,211.98 107.1,323.35l214.41 656.97 409.46 0c-1.25,-56.09 -32.58,-117.75 -48.07,-172.42 -18.92,-66.67 -36.28,-117.4 -55.6,-175.37l-790.07 -2422.51c-381.06,-1143.54 -742.88,-2309.3 -1125.99,-3451.42l-223.04 -690.34c-77.36,-231.99 -149.15,-457.76 -225.77,-687.62l-561.63 -1727.08c-46.86,-140.53 -554.42,-1666.96 -560.39,-1738.81l-461.93 0c-4.95,59.38 -73.79,236.99 -95.82,303.12 -33.3,99.91 -69.02,207.22 -102.32,307.14l-612.29 1825.43z"/>
   <path class="fil0" d="M3811.02 5112.84l101.18 329.24c32.46,110.33 72.65,218.57 107.44,323.02 72.19,216.6 140.58,431.95 212.64,648.22 71.05,213.17 139.9,430.26 212.61,648.3l216.52 654.87c-287.97,0 -554.78,-10.5 -850.39,-10.5 -286.96,0 -573.93,0 -860.89,0l849.7 -2572.85c9.82,-21.37 3.5,-9.25 11.19,-20.31zm-1322.82 2918.62l2614.14 10.5c-1.22,-55.4 -56.14,-194.76 -74.83,-250.63l-569.54 -1740.16c-111.5,-334.36 -212.03,-656.94 -322.84,-989.48 -54.92,-164.84 -111.5,-324.03 -162.86,-498.56 -27.64,-93.94 -156.45,-442.33 -161.25,-500.14 -33.68,24.65 -20.06,23.15 -48.54,108.94l-614.2 1873.95c-109.82,329.54 -218.78,661.63 -325.36,997.46 -51.09,160.94 -120.11,336.06 -164.52,496.91l-125.13 368.3c-16.13,40.77 -28.4,88.17 -45.06,122.91z"/>
   <path class="fil0" d="M1669.29 11055.08l430.45 0c13.36,-57.36 36.69,-115.27 56.45,-174.53l377.82 -1165.48c11.31,-35.52 12.8,-77.32 48.66,-77.32l2383.18 0c38.75,0 45.87,80.92 68.97,162.03 18.72,65.78 34.28,114.61 52.59,178.36l308.9 1076.95 461.93 0 -577.43 -1826.78 -2645.65 0c-134.34,0.03 -237.75,-10.48 -377.95,-10.48 -24.4,50.86 -56.39,158.88 -74.81,219.13l-146.99 461.93c-24.69,73.82 -47.9,154.22 -73.49,230.98l-292.62 925.22z"/>
  </g>
  <g id="_105553653881440">
   <path class="fil2" d="M24489.22 1910.1l0 4011.72 609.63 0 0 -3146.43c61.52,22.27 18.46,-2.71 65.55,52.46 27.16,31.83 27.48,38.18 49.68,68.31 35.3,47.93 67.12,89.58 101.07,134.87l1435.57 1887.87c61.36,-41.08 352,-435.98 418.64,-525.29l1233.23 -1618.22 0 3146.43 609.63 0 0 -4070.71 -471.97 0c-48.05,0 -45.95,17.29 -71.68,46.35 -9.15,10.3 -44.57,62.4 -57.59,80.03l-1213.63 1598.5c-68.29,91.51 -389.17,533.86 -446.63,575.95l-882.09 -1163.07c-148.82,-198.36 -290.38,-380.76 -441.08,-581.53 -500.44,-666.71 -328.32,-556.23 -879.33,-556.23 -45.31,0 -59,13.69 -59,59z"/>
   <path class="fil2" d="M57467.7 7377.03l609.61 0 0 -1455.22 2340.15 0c84.74,0 361.03,-352.16 437.51,-427.77 37.23,-36.8 132.79,-106.37 132.79,-162.18l0 -2300.85c0,-37.12 -325.91,-409.18 -368.56,-457.38 -40.32,-45.52 -81.82,-132.57 -142.74,-132.57l-1809.18 0c-62.7,0 -108.04,89.21 -143.47,131.85l-264.3 286.31c-50.26,49.73 -103.63,78.93 -123.19,152.14l2222.15 0 0 2340.15 -2281.15 0 0 -2910.45 -609.61 0 0 4935.96z"/>
   <path class="fil2" d="M17016.45 7377.03l609.63 0 0 -1455.22 2340.15 0c70.09,0 234.4,-225.42 289.77,-280.53 54.19,-53.88 260.87,-238.68 260.87,-309.41l0 -2281.18c0,-95.36 -56.45,-119.68 -101.07,-174.23 -60.1,-73.59 -339.78,-435.38 -410.22,-435.38l-1789.55 0c-52.09,0 -488.42,477.42 -550.62,570.3l2241.82 0 0 2340.15 -2281.15 0 0 -2851.45c0,-45.32 -13.67,-59 -59,-59l-550.63 0 0 4935.96z"/>
   <path class="fil2" d="M65215.76 3050.68l0 2281.18c0,55.93 195.85,259.85 240.58,310.03l124.68 150.64c33.92,43.69 84.89,129.29 146.05,129.29l2556.47 0c60.12,0 212.32,-211.27 261.53,-269.42 87.88,-103.88 176,-190.71 249.76,-300.88l-2969.44 0 0 -2320.5 2340.18 0 0 884.93 -2281.18 0c47.6,89.94 250.65,305.34 342.6,424.37 31.24,40.47 94.2,126.27 149.04,126.27l1907.52 0c74.5,0 318.5,-342.36 398.28,-427.67 32,-34.25 113.01,-110.03 113.01,-162.29l0 -825.94c0,-41.18 -227.55,-275.73 -270.78,-319.17 -56.57,-56.88 -225.1,-290.44 -299.51,-290.44l-2477.82 0c-64.08,0 -132.9,117.25 -211.37,201.61 -48.68,52.38 -319.59,372.51 -319.59,408.01z"/>
   <path class="fil2" d="M29916.8 3011.37l2418.83 0 0 2340.15 -2418.83 0 0 -2340.15zm-629.28 39.31l0 2241.84c0,127.21 322.85,385.48 424.29,519.66 114.92,152.06 116.61,109.8 362.33,109.64l2379.48 0c22.54,-84.46 172.25,-190.12 260.39,-290.21 59.54,-67.62 250.9,-261.65 250.9,-299.74l0 -2261.5c0,-116.18 -189.34,-254.59 -260.95,-329.01 -56.21,-58.39 -235.33,-300.28 -309.33,-300.28l-2517.15 0c-94.89,0 -112.51,63.03 -171.87,123.1 -80.38,81.34 -418.08,425.44 -418.08,486.52z"/>
   <path class="fil2" d="M61872.69 3011.37l2418.81 0 0 2340.15 -2418.81 0 0 -2340.15zm-629.3 59l0 2261.5c0,53.09 336.18,377.21 393.31,452.29 28.88,37.94 98.56,137.66 157.32,137.66l2556.47 0c59.52,0 257.42,-221.65 297.91,-272.39 91.38,-114.54 272.38,-262.82 272.38,-317.55l0 -2281.18c0,-53.7 -518.37,-609.61 -570.28,-609.61l-2556.47 0c-64.69,0 -64.78,55.74 -152.11,142.86l-285.54 304.43c-51.78,50.72 -112.99,88.98 -112.99,182.01z"/>
   <path class="fil2" d="M12139.52 5921.81l629.26 0 150.87 -340.8c29.64,-63.62 40.09,-101.45 71.81,-164.16 32.45,-64.13 65.83,-105.49 72.31,-183.33 175.95,0 1625.44,31.06 1706.57,-23.98 31.09,-21.09 138.73,-140.04 176.54,-177.42 68.61,-67.85 98.18,-119.31 166.82,-187.16 62.43,-61.74 125.32,-111.69 172.23,-181.73l-1946.87 0 367.17 -812.74c47.31,-101.53 81.32,-190.94 124.73,-288.25 51.35,-115.09 468.52,-1003.42 491.37,-1101.52 52.13,59.97 1122.19,2379.94 1207.87,2587.51l404.69 873.57 727.59 0 -1868.17 -4070.71 -825.95 0 -222.78 504.83c-262.55,563.43 -540.3,1219.33 -806.58,1769.57l-628.98 1396.52c-24.22,51.98 -40.93,77.18 -63.9,132.79 -34.33,83.1 -100.18,189.52 -106.6,267.01z"/>
   <path class="fil2" d="M38077.86 3011.37l2438.46 0 0 2340.15 -2438.46 0 0 -2340.15zm-609.63 19.65l0 2300.85c0,43.49 482.46,589.95 550.63,589.95l2556.45 0c54.72,0 117.96,-85.8 149.05,-126.28 82.62,-107.66 401.58,-397.92 401.58,-463.67l0 -2300.85c0,-59.9 -392.35,-428.7 -462.81,-520.43 -27.81,-36.19 -31.98,-69.51 -87.83,-69.51l-2556.45 0c-53.61,0 -550.63,543.04 -550.63,589.95z"/>
   <path class="fil2" d="M53318.34 5921.81l609.63 0 0 -3500.4 2281.15 0 0 3500.4 570.3 0c45.31,0 59,-13.7 59,-59l0 -3952.72c0,-45.31 -13.69,-59 -59,-59l-3461.08 0 0 4070.71z"/>
   <path class="fil2" d="M45786.58 2500.06l0 3421.75 491.64 0c58.12,0 241.3,-244.46 289.1,-300.88l413.78 -490.8c34.81,-39.12 38.06,-49.75 69.94,-87.38 29.36,-34.66 47.85,-47.16 75.66,-81.67l207.34 -244.95c33.39,-39.71 32.89,-47.31 70.06,-87.28l1115.93 -1302.86 0 2595.82 609.63 0 0 -3480.75 -570.28 0c-58.15,0 -233.38,236.91 -278.06,292.23l-198.29 234.37c-33.58,38.52 -35.96,49.77 -69.68,87.63 -91.85,103.03 -177.2,201.03 -263,307.28l-1334.48 1575.97 0 -2222.17c0.56,-335.54 106.43,-275.3 -570.3,-275.3 -45.29,0 -59,13.67 -59,59z"/>
   <path class="fil2" d="M41479.91 5921.81l589.97 0 1016.94 -2522.8c27.59,-68.95 43.39,-112.71 72.95,-182.7 32.03,-75.86 50.71,-100.94 70.36,-185.3 48.78,35.75 60.9,102.06 87.08,168.55 330.3,838.67 703.85,1696.68 1039.4,2539.66 26.37,66.25 58.93,121.81 73.08,182.59l707.94 0c-65.62,-136.8 -115.15,-291.17 -177.5,-432.13 -60.68,-137.3 -121.84,-286.94 -179.47,-430.13 -117.12,-290.89 -233.44,-580.21 -359.26,-879.66l-719.3 -1738.82 -825.94 0c-15.47,66.33 -54.82,146.67 -81.49,213.51l-266.85 657.43c-87.48,219.67 -1039.18,2504.89 -1047.92,2609.8z"/>
   <path class="fil2" d="M20615.19 3011.37l1474.9 0 0 2910.45 629.26 0 0 -2910.45 1455.22 0c-35.32,-52.79 -488.35,-570.3 -550.6,-570.3l-2458.16 0c-58.25,0 -352.67,354.74 -408.2,417.75 -51.15,58.04 -100.49,89.94 -142.41,152.55z"/>
   <path class="fil2" d="M49444.32 3011.37l1474.88 0 0 2910.45 609.61 0 0 -2910.45 1455.23 0c-59.44,-112.33 -168.54,-192.36 -252.73,-297.91 -41.13,-51.58 -87.43,-91.38 -135.83,-139.49 -100.8,-100.18 -80.28,-132.9 -142.4,-132.9l-2477.81 0c-64.86,0 -63.59,53.23 -142.2,133.13l-265.86 284.75c-49.93,49.39 -103.46,79.6 -122.91,152.42z"/>
   <path class="fil2" d="M72334.55 3011.37l1474.88 0 0 2910.45 609.63 0 0 -2910.45 1455.22 0c-12.2,-45.67 -205.7,-253.93 -250.33,-300.3 -45.51,-47.29 -238.79,-270 -280.63,-270l-2458.12 0c-66.64,0 -239.42,209.78 -283.62,267.01 -97.11,125.77 -146.81,123.77 -267.01,303.29z"/>
   <path class="fil2" d="M33397.55 5921.81l609.6 0 0 -1474.91 1907.54 0c17.55,-65.73 175.8,-217.18 227.68,-283.59 46.18,-59.11 68.57,-81.68 114.92,-140.73 48.84,-62.18 90.47,-73.97 109.7,-145.96l-2359.85 0 0 -1435.55 -609.6 0 0 3480.75z"/>
   <path class="fil2" d="M69856.74 4151.93c60.47,40.47 79.27,68.26 126.32,129.37 45.16,58.72 83.45,90.27 134.24,141.03l255.49 275.5c93.79,92.73 176.78,165.02 259.19,271.73l379.8 406.82c50.99,50.72 87.17,86.75 137.97,137.36 430.94,429.55 249.33,408.35 653.85,408.07 183.53,-0.13 367.09,0 550.63,0 -22.95,-85.89 -138.86,-168.35 -201.59,-231.08l-1061.87 -1101.29c-105.86,-104.92 -358.35,-333.88 -427.75,-437.51 32.64,-48.76 53.81,-58.53 92.43,-104.21 160.54,-189.8 333.36,-351.65 512.29,-529.98l196.36 -216.6c142.98,-142.27 270.22,-270.88 413.29,-412.65 78.3,-77.61 119.03,-139.87 196.51,-216.45 62.81,-62.08 178.86,-145.57 201.66,-230.98 -170.42,0 -340.89,0.48 -511.3,-0.03 -288.99,-0.86 -213.15,-13.11 -368.71,142.61l-1538.8 1568.29z"/>
   <path class="fil2" d="M36406.31 2500.06l0 3362.75c0,45.29 13.69,59 59,59l570.28 0 0 -3421.75c0,-45.32 -13.67,-59 -59,-59l-511.29 0c-45.31,0 -59,13.67 -59,59z"/>
   <polygon class="fil2" points="69207.8,5921.81 69817.43,5921.81 69817.43,2441.07 69207.8,2441.07 "/>
  </g>
  <g id="_105553653885824">
   <path class="fil2" d="M43207.21 9139.93l-109.85 0c-174.13,0 -360.95,-171.47 -360.95,-345.26l0 -78.46c0,-173.75 186.81,-345.24 360.95,-345.24l109.85 0c188.43,0 350.68,201.56 355.02,378.45 4.47,183.84 -167.17,390.52 -355.02,390.52zm-564.97 -768.97c0,234.32 -21.91,1125.38 15.7,1286.84l62.78 0c40.35,-173.26 15.69,-427.23 15.69,-627.74 159.45,106.78 112.02,188.32 455.11,188.32 132.23,0 226.05,-57.28 316.15,-138.93 27.36,-24.82 76.22,-92.9 92.43,-127.29 81.32,-172.47 45.57,-384.48 -84.28,-513.17 -177.07,-175.55 -465.37,-191.7 -635.87,-81.42 -57.61,37.28 -89.26,86.9 -143.55,123.24 0,-42.2 11.1,-134.62 -8.77,-166.95 -38.72,-62.98 -85.4,-10.3 -85.4,57.1z"/>
   <path class="fil2" d="M33634.39 8370.96l109.85 0c174.12,0 360.93,171.49 360.93,345.24l0 78.46c0,173.79 -186.81,345.26 -360.93,345.26l-109.85 0c-185.53,0 -353.3,-199.76 -358.47,-377.92 -5.38,-185.51 174.48,-391.05 358.47,-391.05zm-439.43 -31.39l0 1271.14c0,52.19 28.2,45.97 78.48,47.09l0 -643.41c112.71,75.48 96.83,203.99 486.49,203.99 195.22,0 423.71,-214.24 423.71,-408.01l0 -109.85c0,-193.77 -228.49,-408.02 -423.71,-408.02 -380.63,0 -382.79,128.05 -486.49,204.02l0 -204.02c-50.28,1.11 -78.48,-5.12 -78.48,47.08z"/>
   <path class="fil2" d="M15242.02 8763.29c0,-221.44 185.67,-392.34 360.96,-392.34l109.84 0c179.15,0 360.95,164.75 360.95,408.02 0,178.23 -185.13,360.95 -360.95,360.95l-109.84 0c-183.51,0 -360.96,-187.84 -360.96,-376.63zm-78.46 847.42c0,43.41 12.1,37.75 47.09,47.09 55.58,-40.75 31.37,-152.98 31.37,-298.19 0,-115.09 0,-230.14 0,-345.23 371.65,427.57 910.21,116.61 910.21,-219.72l0 -78.46c0,-202.7 -229.23,-423.71 -423.71,-423.71 -239.17,0 -320.91,13.51 -486.5,204.02l0 -204.02 -78.46 0 0 1318.22z"/>
   <path class="fil2" d="M29679.73 8920.22c-64.48,-121.84 -54.22,-250.5 15.82,-360.82 156.07,-245.84 538.47,-258.34 690.37,-31.52 -111.67,74.78 -233.03,122.34 -354.33,194.94 -117.81,70.52 -244.29,125.36 -351.87,197.4zm-125.56 -172.63c0,134.29 62.48,251.29 129.88,325.22 27.53,30.2 99.85,80.63 136.07,99.35 385.95,199.38 808.27,-236.25 628.57,-236.25 -53.84,0 -39.26,43.03 -137.01,129.78 -160.96,142.81 -570.45,75.15 -584.88,-98.38 81.9,-19.1 470.26,-251.19 575.53,-303.29 39.74,-19.67 54.34,-30.07 90.5,-50.74 55.35,-31.62 114.39,-40.07 85.73,-114.1 -11.13,-28.83 -10.9,-23.38 -32.41,-46.61 -181.15,-195.47 -547.84,-229.23 -754.49,-22.6 -25.33,25.31 -76.02,97.02 -90.98,128.74 -15.03,31.88 -46.51,143.42 -46.51,188.88z"/>
   <path class="fil2" d="M36584.7 8920.22c-4.94,-59.36 -31.39,-104.77 -31.39,-156.93 0,-199.26 168.39,-392.34 360.95,-392.34 169.08,0 289.39,3.22 392.32,156.93l-721.88 392.34zm-109.85 -172.63c0,269.46 234.48,470.78 423.71,470.78 152.85,0 234.15,7.96 370.28,-84.8 62.78,-42.78 129.75,-101.15 131.9,-197.66 -67.12,1.5 -63.64,11.64 -92.91,48.31 -194.11,243.3 -554.2,180.72 -676.02,-1.24 137.25,-72.62 699.42,-391.81 768.94,-408.01 0,-105.71 -26.37,-128.07 -132.21,-197.35 -312.35,-204.5 -793.67,-31.95 -793.67,369.96z"/>
   <path class="fil2" d="M21691.91 8920.22c-23.66,-101.55 -31.37,-46.93 -31.37,-188.32 0,-178.23 185.1,-360.95 360.93,-360.95 151.68,0 288.68,2.16 392.34,156.93 -242.77,128.46 -479.93,264.3 -721.89,392.34zm-109.85 -204.02c0,160.73 14.78,242.49 136.82,365.37 167.28,168.47 447.58,179.73 635.67,61.87 45.97,-28.81 147.62,-114.66 148.82,-165.46 3.24,-135.71 -137.11,60.61 -149.3,70.82 -164.42,137.56 -482.61,132.01 -615.08,-65.82l395.36 -216.67c104.32,-63.5 373.61,-176.02 373.61,-238.43 0,-87.66 -252.42,-235.39 -376.63,-235.39 -163.88,0 -272.49,-4.11 -412.45,136.82 -63.83,64.28 -136.82,166.32 -136.82,286.89z"/>
   <path class="fil2" d="M52168 8920.22c-109.34,-227.85 55.51,-549.26 329.56,-549.26 123.06,0 363.67,16.88 376.63,172.63 -58.17,13.56 -288.15,143.64 -351.88,181.68l-171.14 95.64c-68.14,36.56 -121.59,66.74 -183.17,99.32zm-109.87 -219.71l0 109.85c0,193.77 228.51,408.01 423.73,408.01 149.91,0 212.87,10.27 345.64,-78.07 44.1,-29.34 145.15,-102.88 149.5,-164.77 12.22,-173.11 -152.85,164.39 -369.58,164.39 -166.7,0 -279.87,11.01 -392.34,-156.94 114.76,-76.85 256.97,-137.48 383.25,-213.08l385.71 -210.62c-12.1,-145.42 -263.12,-266.78 -376.63,-266.78l-125.56 0c-195.22,0 -423.73,214.26 -423.73,408.02z"/>
   <path class="fil2" d="M40916 8370.96c0,188.65 -19.43,696.65 15.7,847.42 99.86,-2.21 164.54,-123.14 310.24,-270.38l474.42 -514.26 -0.54 643.96c-1.96,114.1 -25.05,138.37 78.99,140.68l0 -925.88c-99.86,2.23 -164.52,123.14 -310.24,270.4 -78.91,79.75 -421.89,479.09 -474.4,514.26l1.83 -708.34c-6.84,-125.69 -96,-97.7 -96,2.15z"/>
   <path class="fil2" d="M46377.22 9139.93l-266.78 0 0 -392.34c161.6,0 486.49,-39.71 486.49,204.02 0,111.82 -101.99,188.32 -219.71,188.32zm-31.39 -470.8l-235.39 0 0 -298.17c234.81,0 423.71,-42.52 423.71,156.93 0,99.53 -89.69,141.24 -188.32,141.24zm-313.86 549.25c254,0 643.41,64.26 643.41,-282.47 0,-111.6 -69.42,-196.32 -156.94,-219.71l0 -31.37c181.33,-48.41 104.59,-392.34 -109.84,-392.34l-376.63 0 0 925.88z"/>
   <path class="fil2" d="M47695.45 9139.93c-400.72,0 -357.46,-486.5 -15.7,-486.5 238.35,0 327.63,282.32 181.76,417.17 -45.7,42.29 -86.06,69.33 -166.06,69.33zm-62.78 -768.97c66.23,0 110.45,-6.11 165.46,22.85 116.97,61.59 132.71,147.63 132.71,291.02 -112.74,-75.49 -95.22,-109.85 -282.47,-109.85 -415.73,0 -419.48,643.4 -15.7,643.4 173.31,0 160.89,-2.21 298.17,-94.15 0,87.25 -9.73,92.2 78.46,94.15l0 -627.71c0,-156.81 -150.49,-298.17 -298.17,-298.17l-109.85 0c-57.73,0 -193.96,67.32 -183.84,124.81 14.33,81.27 129.63,-46.35 215.23,-46.35z"/>
   <path class="fil2" d="M50426.06 9218.37c86.47,0 98.76,-38.32 223.95,-168.37 39.23,-40.75 46.45,-61.89 85.66,-102.64 36.99,-38.41 65.68,-62.98 102.65,-101.38 39.23,-40.75 46.45,-61.87 85.66,-102.64 36.84,-38.24 64.83,-63.9 102.55,-101.45 71.63,-71.26 115.73,-151.84 199.87,-208.16l0 784.64 78.45 0 0 -925.88c-118.88,0 -48.68,-8.54 -144.91,90.48l-655.43 694.17 0 -784.66 -78.46 0 0 925.88z"/>
   <path class="fil2" d="M18537.6 8339.57l0 831.73c0,167.76 217.56,-115.86 239.29,-137.34l282.38 -298.25c36.38,-41.31 44.12,-60.27 86.19,-102.11 34.44,-34.26 62.23,-58.67 94.58,-93.75 40.98,-44.43 47.79,-72.55 97.9,-106.1l-0.56 643.96c-1.96,114.1 -25.03,138.37 79.03,140.68l0 -925.88c-89.81,2 -140.61,78.74 -217.36,174.96 -40.17,50.34 -523.62,588.22 -583,609.7l0 -784.66c-50.28,1.11 -78.45,-5.12 -78.45,47.08z"/>
   <path class="fil2" d="M17235.05 8370.96l109.85 0c174.12,0 360.95,171.49 360.95,345.24l0 78.46c0,173.79 -186.83,345.26 -360.95,345.26 -166.67,0 -218.48,9.11 -349.67,-121.13 -68.87,-68.38 -112.35,-141.54 -115.19,-257.32 -4.51,-184.49 172.55,-390.52 355,-390.52zm15.7 847.42c180.8,0 258.77,0.66 404.37,-144.86 83.86,-83.81 138.63,-186.7 142.35,-311.53 7.08,-236.45 -232.39,-469.5 -436.88,-469.5 -168.29,0 -294.04,-0.92 -432.31,148.33 -69.8,75.31 -133.56,186.75 -129.85,321.12 6.74,242 214.04,456.43 452.32,456.43z"/>
   <path class="fil2" d="M28000.54 8763.29c0,-221.44 185.66,-392.34 360.95,-392.34l109.85 0c179.15,0 360.95,164.75 360.95,408.02 0,178.23 -185.13,360.95 -360.95,360.95l-109.85 0c-183.5,0 -360.95,-187.84 -360.95,-376.63zm-78.46 -47.09l0 78.46c0,202.7 229.23,423.71 423.73,423.71l141.23 0c194.49,0 423.73,-221.01 423.73,-423.71l0 -78.46c0,-202.7 -229.23,-423.71 -423.73,-423.71l-141.23 0c-194.49,0 -423.73,221.01 -423.73,423.71z"/>
   <path class="fil2" d="M44839.3 9139.93l-109.87 0c-179.14,0 -360.93,-164.77 -360.93,-408.02 0,-178.23 185.11,-360.95 360.93,-360.95l109.87 0c268.46,0 504.48,377.54 255.39,647.72 -48.86,53.02 -158.79,121.25 -255.39,121.25zm-549.26 -423.73l0 78.46c0,202.7 229.22,423.71 423.73,423.71 173.79,0 283.47,7.33 436.19,-144.46 304.44,-302.59 23.61,-781.42 -294.95,-781.42l-141.24 0c-194.51,0 -423.73,221.01 -423.73,423.71z"/>
   <path class="fil2" d="M35392.02 9139.93c-143.54,0 -240.08,5.56 -357.73,-113.07 -255.02,-257.15 -45.51,-655.9 247.87,-655.9l109.85 0c183.36,0 360.93,193.68 360.93,376.63 0,196.82 -169.77,392.34 -360.93,392.34zm-549.25 -408.02c0,282.33 208.96,486.47 423.71,486.47 180.95,0 303.01,-3.43 436.08,-144.54 285.65,-302.94 53.99,-781.34 -326.24,-781.34l-109.84 0c-211.57,0 -423.71,221.7 -423.71,439.41z"/>
   <path class="fil2" d="M26415.55 9218.37c113.27,-2.51 78.46,-11.9 78.46,-423.71l596.34 0c0,411.8 -34.81,421.2 78.46,423.71l0 -925.88c-113.27,2.53 -78.46,11.92 -78.46,423.71l-596.34 0c0,-411.79 34.81,-421.18 -78.46,-423.71l0 925.88z"/>
   <path class="fil2" d="M48809.65 9218.37l78.46 0 0 -423.71 612.04 0 0 423.71c50.29,-1.11 78.46,5.12 78.46,-47.08l0 -831.73c0,-52.19 -28.17,-45.97 -78.46,-47.08l0 423.71 -612.04 0 0 -423.71 -78.46 0 0 925.88z"/>
   <path class="fil2" d="M31704.14 9218.37c50.28,-1.11 78.46,5.12 78.46,-47.08l0 -800.34 486.49 0 0 847.42 78.46 0 0 -925.88 -643.41 0 0 925.88z"/>
   <path class="fil2" d="M25364.09 9139.93l-266.76 0 0 -392.34 251.08 0c121.11,0 235.39,85.61 235.39,204.02 0,109.27 -106.57,188.32 -219.71,188.32zm-345.24 78.45c230.95,0 418.97,34.86 552.47,-75.23 183.73,-151.48 80.56,-474.02 -238.6,-474.02l-235.39 0c0,-375.38 30.4,-374.21 -78.48,-376.63l0 925.88z"/>
   <path class="fil2" d="M38154.01 8339.57l0 831.73c0,52.19 28.19,45.97 78.46,47.08l0 -439.39c90.02,60.27 147.07,153.43 233.06,222.03 54.54,43.51 74.34,61.52 123.97,111.44 29.52,29.72 84.82,105.92 129.47,105.92 60,0 5.71,4.82 47.08,-15.67 -27.38,-102.54 -336.39,-301.26 -439.41,-455.11 87.12,-58.34 141.32,-145.7 224.33,-215.07 65.17,-54.49 193.12,-142.13 215.08,-224.33 -88.06,-49.47 -115.1,43.76 -293.55,192.92 -87.61,73.25 -148.49,169.49 -240.03,230.79l0 -439.41c-50.28,1.11 -78.46,-5.12 -78.46,47.08z"/>
   <path class="fil2" d="M12150.48 8700.51l0 109.85c0,189.29 229.79,408.01 423.71,408.01 129.77,0 206.2,13.89 320.66,-55.97 105.28,-64.25 101.45,-60.14 103.05,-132.34 -157.49,3.53 -65.14,109.87 -408.02,109.87 -293.76,0 -496.92,-396.25 -255.62,-647.95 131.22,-136.92 356.97,-157.29 509.44,-76.65 58.35,30.86 75.95,63.75 154.2,65.49 -1.3,-58.55 17.34,-63.95 -104.54,-130.87 -325.48,-178.77 -742.88,59.23 -742.88,350.58z"/>
   <path class="fil2" d="M23198.44 9218.37c48.2,0 79.67,-94.2 138.29,-191.26l363.89 -624.77c43.38,31.77 227.15,365.87 269.75,436.46 27,44.71 195.6,362.1 239.8,375.43 51.37,15.49 43.56,-1.63 48.31,-25.31 6.06,-30.45 -219.21,-382.26 -254.31,-446.71 -43.74,-80.38 -82,-141.14 -127.97,-217.28 -33.65,-55.78 -115.2,-175.39 -128.49,-232.44 -88.32,1.96 -76.53,15.32 -111.26,77.08l-473.77 800c-6.62,21.17 -23.13,48.81 35.76,48.81z"/>
   <path class="fil2" d="M13657.02 8355.27c118.03,27.49 188.71,15.69 329.56,15.69l0 800.34c0,64.66 94.15,84.99 94.15,-31.37l0 -768.97c140.86,0 211.52,11.81 329.56,-15.69l0 -62.78 -753.27 0 0 62.78z"/>
   <path class="fil2" d="M39409.47 8355.27c118.98,27.71 203.14,15.69 345.26,15.69l0 847.42c50.28,-1.11 78.45,5.12 78.45,-47.08l0 -800.34c261.46,0 320.1,31.49 345.26,-62.76 -62.71,-35.24 -651.92,-15.7 -768.97,-15.7l0 62.78z"/>
   <path class="fil2" d="M20169.67 8355.27c118.97,27.71 203.14,15.69 345.24,15.69l0 847.42c50.29,-1.11 78.46,5.12 78.46,-47.08l0 -800.34c261.46,0 320.08,31.49 345.26,-62.76 -62.71,-35.24 -651.92,-15.7 -768.97,-15.7l0 62.78z"/>
  </g>
 </g>
</svg>
